<?xml version="1.0" standalone="no"?><!DOCTYPE svg PUBLIC "-//W3C//DTD SVG 1.1//EN" "http://www.w3.org/Graphics/SVG/1.1/DTD/svg11.dtd"><svg t="1657528122951" class="icon" viewBox="0 0 1024 1024" version="1.1" xmlns="http://www.w3.org/2000/svg" p-id="2118" xmlns:xlink="http://www.w3.org/1999/xlink" width="200" height="200"><defs><style type="text/css">@font-face { font-family: feedback-iconfont; src: url("//at.alicdn.com/t/font_1031158_u69w8yhxdu.woff2?t=1630033759944") format("woff2"), url("//at.alicdn.com/t/font_1031158_u69w8yhxdu.woff?t=1630033759944") format("woff"), url("//at.alicdn.com/t/font_1031158_u69w8yhxdu.ttf?t=1630033759944") format("truetype"); }
</style></defs><path d="M384 469.333333c23.466667 0 42.666667 38.4 42.666667 85.333334s-19.2 85.333333-42.666667 85.333333-42.666667-38.4-42.666667-85.333333 19.2-85.333333 42.666667-85.333334m256 0c23.466667 0 42.666667 38.4 42.666667 85.333334s-19.2 85.333333-42.666667 85.333333-42.666667-38.4-42.666667-85.333333 19.2-85.333333 42.666667-85.333334M416 74.666667S682.666667 170.666667 640 341.333333c0 0 170.666667 0 96 149.333334 0 0 179.626667 18.773333 129.28 163.84-54.613333 50.773333-67.413333 65.706667-118.613333 102.826666l119.893333-68.693333c44.373333 21.76 173.226667 99.413333 29.44 207.36-170.666667 128-426.666667 10.666667-512 10.666667S213.333333 938.666667 170.666667 938.666667s-85.333333-42.666667-85.333334-128 85.333333-128 128-128c0 0-128-128 85.333334-213.333334 0 0-85.333333-128 85.333333-170.666666 0 0-42.666667-42.666667 0-85.333334s32-96 32-138.666666M341.333333 725.333333c56.746667 49.92 113.92 99.413333 170.666667 99.413334s113.92-49.493333 170.666667-99.413334H341.333333m42.666667-298.666666c-46.933333 0-85.333333 57.173333-85.333333 128s38.4 128 85.333333 128 85.333333-57.173333 85.333333-128-38.4-128-85.333333-128m256 0c-46.933333 0-85.333333 57.173333-85.333333 128s38.4 128 85.333333 128 85.333333-57.173333 85.333333-128-38.4-128-85.333333-128z" fill="" p-id="2119"></path></svg>