<?xml version="1.0" standalone="no"?><!DOCTYPE svg PUBLIC "-//W3C//DTD SVG 1.1//EN" "http://www.w3.org/Graphics/SVG/1.1/DTD/svg11.dtd"><svg t="1657416391849" class="icon" viewBox="0 0 1024 1024" version="1.1" xmlns="http://www.w3.org/2000/svg" p-id="9229" xmlns:xlink="http://www.w3.org/1999/xlink" width="200" height="200"><defs><style type="text/css">@font-face { font-family: feedback-iconfont; src: url("//at.alicdn.com/t/font_1031158_u69w8yhxdu.woff2?t=1630033759944") format("woff2"), url("//at.alicdn.com/t/font_1031158_u69w8yhxdu.woff?t=1630033759944") format("woff"), url("//at.alicdn.com/t/font_1031158_u69w8yhxdu.ttf?t=1630033759944") format("truetype"); }
</style></defs><path d="M671.488 959.701333a349.610667 349.610667 0 0 1-138.965333-28.757333 350.762667 350.762667 0 0 1-116.394667-81.365333 371.413333 371.413333 0 0 1-95.573333 14.250666c-176.896 0-320.554667-143.573333-320.554667-320s143.573333-320 320-320c12.330667 0 25.088 0.810667 38.058667 2.389334 19.242667-94.976 82.218667-162.389333 153.941333-162.389334a137.941333 137.941333 0 0 1 80.341333 29.269334c24.149333-19.2 51.370667-29.269333 79.530667-29.269334 88.234667 0 160 100.48 160 224l-0.042667 4.992c14.549333 7.381333 28.501333 15.701333 41.728 24.874667l60.8-81.109333a32.213333 32.213333 0 0 1 44.8-6.4 31.872 31.872 0 0 1 6.4 44.8l-62.976 83.968a353.664 353.664 0 0 1 73.301334 387.541333 352.682667 352.682667 0 0 1-324.309334 213.077333c0 0.128-0.085333 0.128-0.085333 0.128z m-189.866667-135.722666a286.805333 286.805333 0 0 0 76.245334 48.170666 288.682667 288.682667 0 0 0 402.432-252.330666 127.445333 127.445333 0 0 0-146.645334-33.706667 32 32 0 0 1-25.088-58.88 191.658667 191.658667 0 0 1 162.133334 5.290667 289.365333 289.365333 0 0 0-85.76-140.032 30.890667 30.890667 0 0 1-12.032-10.24 284.458667 284.458667 0 0 0-29.738667-20.949334c-14.293333 59.093333-44.970667 106.368-86.058667 131.626667a123.008 123.008 0 0 1-65.152 18.901333h-1.92c1.28 10.709333 1.962667 21.418667 1.962667 32a32 32 0 0 1-64 0c0-123.434667-116.138667-224.981333-224.341333-249.045333l-1.408-0.085333a28.842667 28.842667 0 0 1-7.893334-1.749334 297.386667 297.386667 0 0 0-54.357333-5.12c-141.141333 0-256 114.858667-256 256s114.858667 256 256 256c82.56-1.408 163.968-37.888 220.970667-98.389333a153.344 153.344 0 0 1-14.122667-12.458667 32.085333 32.085333 0 0 1 22.613333-54.656c8.533333 0 16.597333 3.328 22.613334 9.386667 18.133333 18.133333 42.24 28.117333 67.882666 28.117333s49.749333-9.984 67.882667-28.117333a31.744 31.744 0 0 1 45.226667 0 31.957333 31.957333 0 0 1 0 45.226667 159.104 159.104 0 0 1-152.746667 41.856 377.002667 377.002667 0 0 1-118.698667 93.184z m171.434667-379.392c6.442667 2.090667 12.885333 3.157333 19.114667 3.157333 10.752 0 21.333333-3.157333 31.402666-9.344 37.845333-23.253333 64.256-85.162667 64.256-150.570667 0-86.741333-43.946667-160-96-160-24.789333 0-43.818667 16.725333-55.424 30.72a152.704 152.704 0 0 0-21.205333 34.56 64.085333 64.085333 0 0 1 76.714667 62.72c0 35.285333-28.714667 64-64 64-11.093333 0-21.632-2.901333-30.890667-8.021333 0.682667 7.722667 1.706667 15.488 3.072 23.168 32.896 32.853333 57.386667 69.632 72.96 109.610667zM420.608 239.573333a394.069333 394.069333 0 0 1 91.392 41.685334c1.024-51.882667 14.421333-101.034667 38.229333-139.861334a72.618667 72.618667 0 0 0-39.210666-13.568c-40.277333 0.256-77.696 47.36-90.410667 111.744z" p-id="9230"></path><path d="M191.957333 511.872a32 32 0 0 1-32-32v-64a32 32 0 0 1 64 0v64c0 17.621333-14.378667 32-32 32z" p-id="9231"></path></svg>